<svg aria-hidden="true" style="position: absolute; width: 0; height: 0; overflow: hidden;" version="1.1" xmlns="http://www.w3.org/2000/svg" xmlns:xlink="http://www.w3.org/1999/xlink">
<defs>
<svg aria-hidden="true" style="position: absolute; width: 0; height: 0; overflow: hidden;" version="1.1" xmlns="http://www.w3.org/2000/svg" xmlns:xlink="http://www.w3.org/1999/xlink">
<defs>
<symbol id="icon-Arrow" viewBox="0 0 176 32">
<path fill="#00d0b0" style="fill: var(--color1, #00d0b0)" d="M173.094 17.414c0.781-0.781 0.781-2.047 0-2.828l-12.728-12.728c-0.781-0.781-2.048-0.781-2.828 0s-0.781 2.047 0 2.828l11.314 11.314-11.314 11.314c-0.781 0.781-0.781 2.047 0 2.828s2.047 0.781 2.828 0l12.728-12.728zM2.918 18h168.761v-4h-168.761v4z"></path>
</symbol>
</defs>
</svg>
<symbol id="icon-circle-up" viewBox="0 0 32 32">
<path d="M0 16c0 8.837 7.163 16 16 16s16-7.163 16-16-7.163-16-16-16-16 7.163-16 16zM29 16c0 7.18-5.82 13-13 13s-13-5.82-13-13 5.82-13 13-13 13 5.82 13 13z"></path>
<path d="M22.086 20.914l2.829-2.829-8.914-8.914-8.914 8.914 2.828 2.828 6.086-6.086z"></path>
</symbol>
<symbol id="icon-Fone-w" viewBox="0 0 35 32">
<path fill="#fff" style="fill: var(--color1, #fff)" d="M29.532 22.853l-5.738-4.928c-0.271-0.233-0.628-0.357-0.994-0.346s-0.714 0.155-0.969 0.404l-3.378 3.281c-0.813-0.147-2.447-0.628-4.13-2.213-1.682-1.591-2.192-3.139-2.343-3.901l3.471-3.192c0.263-0.241 0.417-0.57 0.428-0.916s-0.12-0.683-0.367-0.939l-5.215-5.419c-0.247-0.257-0.59-0.413-0.957-0.434s-0.728 0.093-1.007 0.318l-3.063 2.481c-0.244 0.231-0.39 0.539-0.409 0.865-0.021 0.333-0.425 8.229 6.057 14.355 5.654 5.34 12.737 5.731 14.688 5.731 0.285 0 0.46-0.008 0.507-0.011 0.345-0.018 0.671-0.156 0.915-0.388l2.625-2.895c0.24-0.263 0.362-0.603 0.339-0.95s-0.187-0.671-0.459-0.904z"></path>
</symbol>
<symbol id="icon-email-w" viewBox="0 0 36 32">
<path fill="#fff" style="fill: var(--color1, #fff)" d="M29.442 5.333h-22.584c-0.749 0-1.467 0.281-1.996 0.781s-0.827 1.178-0.827 1.886v16c0 0.707 0.297 1.385 0.827 1.886s1.247 0.781 1.996 0.781h22.584c0.749 0 1.467-0.281 1.996-0.781s0.827-1.178 0.827-1.886v-16c0-0.707-0.297-1.386-0.827-1.886s-1.247-0.781-1.996-0.781zM29.442 11.6l-11.292 7.112-11.292-7.112v-3.204l11.292 7.111 11.292-7.111v3.204z"></path>
</symbol>
<symbol id="icon-TBC" viewBox="0 0 32 32">
<path fill="#fff" style="fill: var(--color1, #fff)" d="M0 0h32v32h-32v-32z"></path>
<path fill="#00ffd8" style="fill: var(--color2, #00ffd8)" d="M0 0l32 32v-32h-32z"></path>
<path fill="#000" style="fill: var(--color3, #000)" d="M5.911 21.029v-8.187h-2.798v-1.413h7.365v1.413h-2.811v8.187h-1.755zM11.778 21.029v-9.6h3.854c0.997 0 1.755 0.233 2.277 0.699 0.53 0.457 0.795 1.047 0.795 1.769 0 0.603-0.165 1.088-0.494 1.454-0.32 0.357-0.713 0.599-1.179 0.727 0.549 0.11 1.001 0.384 1.358 0.823 0.357 0.43 0.535 0.933 0.535 1.509 0 0.759-0.274 1.385-0.823 1.879s-1.326 0.741-2.331 0.741h-3.991zM13.534 15.461h1.838c0.494 0 0.873-0.114 1.138-0.343s0.398-0.553 0.398-0.974c0-0.402-0.133-0.718-0.398-0.946-0.256-0.238-0.645-0.357-1.166-0.357h-1.81v2.619zM13.534 19.602h1.961c0.521 0 0.923-0.119 1.207-0.357 0.293-0.247 0.439-0.59 0.439-1.029 0-0.448-0.151-0.8-0.453-1.056s-0.709-0.384-1.221-0.384h-1.934v2.825zM24.777 21.193c-0.969 0-1.801-0.206-2.496-0.617-0.695-0.421-1.23-1.001-1.605-1.742-0.375-0.75-0.562-1.614-0.562-2.592s0.187-1.842 0.562-2.592c0.375-0.75 0.91-1.335 1.605-1.755s1.527-0.631 2.496-0.631c1.152 0 2.094 0.288 2.825 0.864 0.741 0.567 1.202 1.367 1.385 2.4h-1.934c-0.119-0.521-0.375-0.928-0.768-1.221-0.384-0.302-0.896-0.453-1.536-0.453-0.887 0-1.582 0.302-2.085 0.905s-0.754 1.431-0.754 2.482c0 1.051 0.251 1.879 0.754 2.482 0.503 0.594 1.198 0.891 2.085 0.891 0.64 0 1.152-0.137 1.536-0.411 0.393-0.283 0.649-0.672 0.768-1.166h1.934c-0.183 0.987-0.645 1.76-1.385 2.318-0.731 0.558-1.673 0.837-2.825 0.837z"></path>
</symbol>
<symbol id="icon-cross" viewBox="0 0 32 32">
<path d="M31.708 25.708c-0-0-0-0-0-0l-9.708-9.708 9.708-9.708c0-0 0-0 0-0 0.105-0.105 0.18-0.227 0.229-0.357 0.133-0.356 0.057-0.771-0.229-1.057l-4.586-4.586c-0.286-0.286-0.702-0.361-1.057-0.229-0.13 0.048-0.252 0.124-0.357 0.228 0 0-0 0-0 0l-9.708 9.708-9.708-9.708c-0-0-0-0-0-0-0.105-0.104-0.227-0.18-0.357-0.228-0.356-0.133-0.771-0.057-1.057 0.229l-4.586 4.586c-0.286 0.286-0.361 0.702-0.229 1.057 0.049 0.13 0.124 0.252 0.229 0.357 0 0 0 0 0 0l9.708 9.708-9.708 9.708c-0 0-0 0-0 0-0.104 0.105-0.18 0.227-0.229 0.357-0.133 0.355-0.057 0.771 0.229 1.057l4.586 4.586c0.286 0.286 0.702 0.361 1.057 0.229 0.13-0.049 0.252-0.124 0.357-0.229 0-0 0-0 0-0l9.708-9.708 9.708 9.708c0 0 0 0 0 0 0.105 0.105 0.227 0.18 0.357 0.229 0.356 0.133 0.771 0.057 1.057-0.229l4.586-4.586c0.286-0.286 0.362-0.702 0.229-1.057-0.049-0.13-0.124-0.252-0.229-0.357z"></path>
</symbol>
<symbol id="icon-image-2" viewBox="0 0 32 32">
<path d="M0 0h32v32h-32v-32z"></path>
</symbol>
<symbol id="icon-person-black-18dp-1" viewBox="0 0 32 32">
<path d="M16 16c2.947 0 5.333-2.387 5.333-5.333s-2.387-5.333-5.333-5.333c-2.947 0-5.333 2.387-5.333 5.333s2.387 5.333 5.333 5.333zM16 18.667c-3.56 0-10.667 1.787-10.667 5.333v1.333c0 0.733 0.6 1.333 1.333 1.333h18.667c0.733 0 1.333-0.6 1.333-1.333v-1.333c0-3.547-7.107-5.333-10.667-5.333z"></path>
</symbol>
<symbol id="icon-menu-hamburger" viewBox="0 0 47 32">
<path d="M-0.221 2.077c0-1.205 0.977-2.182 2.182-2.182h42.965c1.205 0 2.182 0.977 2.182 2.182s-0.977 2.182-2.182 2.182h-42.965c-1.205 0-2.182-0.977-2.182-2.182zM-0.221 15.615c0-1.205 0.977-2.182 2.182-2.182h42.965c1.205 0 2.182 0.977 2.182 2.182s-0.977 2.182-2.182 2.182h-42.965c-1.205 0-2.182-0.977-2.182-2.182zM-0.221 29.154c0-1.205 0.977-2.182 2.182-2.182h42.965c1.205 0 2.182 0.977 2.182 2.182s-0.977 2.182-2.182 2.182h-42.965c-1.205 0-2.182-0.977-2.182-2.182z"></path>
</symbol>
<symbol id="icon-phone-black-18dp-1" viewBox="0 0 24 32">
<path d="M19.635 18.487l-2.451-0.28c-0.589-0.067-1.167 0.135-1.582 0.55l-1.775 1.775c-2.731-1.389-4.969-3.618-6.359-6.359l1.785-1.785c0.415-0.415 0.618-0.994 0.55-1.582l-0.28-2.432c-0.116-0.975-0.936-1.708-1.92-1.708h-1.669c-1.090 0-1.997 0.907-1.93 1.997 0.511 8.24 7.102 14.821 15.332 15.332 1.090 0.068 1.997-0.839 1.997-1.93v-1.669c0.010-0.975-0.724-1.795-1.698-1.911z"></path>
</symbol>
<symbol id="icon-email-black-18dp-1" viewBox="0 0 24 32">
<path d="M20 8h-16c-1.1 0-1.99 0.9-1.99 2l-0.010 12c0 1.1 0.9 2 2 2h16c1.1 0 2-0.9 2-2v-12c0-1.1-0.9-2-2-2zM19.6 12.25l-7.070 4.42c-0.32 0.2-0.74 0.2-1.060 0l-7.070-4.42c-0.25-0.16-0.4-0.43-0.4-0.72 0-0.67 0.73-1.070 1.3-0.72l6.7 4.19 6.7-4.19c0.57-0.35 1.3 0.050 1.3 0.72 0 0.29-0.15 0.56-0.4 0.72z"></path>
</symbol>
<symbol id="icon-Vector" viewBox="0 0 40 32">
<path d="M11.4456 4.25506C11.6184 4.08965 11.8483 3.99821 12.0869 4.00003C12.3255 4.00184 12.5541 4.09677 12.7244 4.26478C12.8947 4.4328 12.9934 4.66075 12.9997 4.90055C13.006 5.14034 12.9194 5.37323 12.7582 5.55005L7.86357 11.7044C7.7794 11.7955 7.67782 11.8686 7.5649 11.9194C7.45198 11.9702 7.33003 11.9975 7.20636 11.9998C7.08268 12.0021 6.95981 11.9793 6.8451 11.9328C6.73038 11.8863 6.62618 11.817 6.53872 11.729L3.29283 8.46564C3.20243 8.38096 3.12993 8.27884 3.07965 8.16537C3.02936 8.05191 3.00232 7.92942 3.00014 7.80522C2.99796 7.68102 3.02069 7.55765 3.06696 7.44248C3.11323 7.3273 3.18211 7.22267 3.26947 7.13483C3.35684 7.047 3.4609 6.97775 3.57547 6.93123C3.69003 6.88471 3.81273 6.86186 3.93627 6.86405C4.0598 6.86624 4.18163 6.89343 4.29449 6.94398C4.40734 6.99454 4.50892 7.06743 4.59315 7.15831L7.16189 9.73967L11.4223 4.28219C11.4299 4.27269 11.4381 4.26364 11.4468 4.25506H11.4456Z"/>
</symbol>
<symbol id="icon-Subscribe" viewBox="0 0 32 32">
<path fill="#fff" style="fill: var(--color1, #fff)" d="M32 2.667l-32 15 10.227 3.156 15.773-12.323-11.998 13.488 0.010 0.003-0.012-0.003v7.345l5.735-5.576 7.265 2.242 5-23.333z"></path>
</symbol>
<symbol id="icon-close-black-18" viewBox="0 0 32 32">
<path d="M32 3.223l-3.223-3.223-12.777 12.777-12.777-12.777-3.223 3.223 12.777 12.777-12.777 12.777 3.223 3.223 12.777-12.777 12.777 12.777 3.223-3.223-12.777-12.777 12.777-12.777z"></path>
</symbol>
</defs>
</svg>
